# xmcd CD database file
#
# Track frame offsets:
#	150
#	25880
#	47097
#
# Disc length: 917 seconds
#
# Revision: 0
# Processed by: cddbd v1.5PL3 Copyright (c) Steve Scherf et al.
# Submitted via: CDex 1.50
#
DISCID=1d039303
DTITLE=access - TRY AGAIN
DYEAR=1900
DGENRE=Rock
TTITLE0=TRY AGAIN
TTITLE1=JUNGLING PARTY
TTITLE2=MOONSHINE DANCE(Instrumental Mix)
EXTD=
EXTT0=
EXTT1=
EXTT2=
PLAYORDER=
